<?xml version="1.0" encoding="UTF-8"?>
<svg data-name="Layer 1" id="Layer_1" viewBox="0 0 1228 1201" xmlns="http://www.w3.org/2000/svg">
    <defs>
        <style>
            .cls-1 {
            clip-path: url(#clippath);
            }

            .cls-2 {
            fill: none;
            }

            .cls-2, .cls-3, .cls-4, .cls-5, .cls-6, .cls-7, .cls-8 {
            stroke-width: 0px;
            }

            .cls-9 {
            clip-path: url(#clippath-1);
            }

            .cls-3 {
            fill: #4d4d4d;
            }

            .cls-4 {
            fill: #29abe2;
            }

            .cls-5 {
            fill: gray;
            }

            .cls-6 {
            fill: #333;
            }

            .cls-7 {
            fill: #006837;
            }

            .cls-8 {
            fill: #009245;
            }
        </style>
        <clipPath id="clippath">
            <path class="cls-2"
                d="m152.96,717l69.54-168.5v-60.86l43-61.14,71-100,55-47.02,37-15.98h48.11s9.39,12.5,22.89,16,11.22-11.5,29.86-16,.64,4.31,28.64,17.4,77.09,5.08,77.09,5.08l68.41,4.51,43,25,30,28v28.65l41,18.35,36,19,11,34v28.45l15.59,40.05,44.41,51.5-9,57,24,50,50,37,18.91,9.5,19.09.5s41-79,42.5-205.5S1039.5-.5,558,0,8.96,512,8.96,512l48.48,205h95.52Z" />
        </clipPath>
        <clipPath id="clippath-1">
            <polygon class="cls-2" points="88.91 717.5 1027.5 717.5 864 1201 0 1098 88.91 717.5" />
        </clipPath>
    </defs>
    <polygon class="cls-6" points="113 663 143 776 977 769 1027.5 717.5 824 160 247 210 113 663" />
    <g class="cls-1">
        <circle class="cls-4" cx="558" cy="512" r="512" />
    </g>
    <path class="cls-6"
        d="m428.5,263.5l399.47-186.62s235.03,127.12,242.03,435.12c0,0,5,98-42.5,205.5s-19.09-.5-19.09-.5l-85.54-35.46-494.36-418.04Z" />
    <g class="cls-9">
        <circle class="cls-7" cx="558" cy="512" r="512" />
    </g>
    <polygon class="cls-3" points="207.14 717.5 288 496 419.58 358.75 652 339 769 427 857 575 922.86 717.5 207.14 717.5" />
    <polyline class="cls-5" points="391.06 717.5 819.54 512 857 575 922.86 717.5" />
    <path class="cls-8"
        d="m843.15,374.4l-7.52-25.7c-14.83,4.06-31.44,3.95-42.21.19l1.12-18.83c10.95,3.43,25.59,4.39,39.84.22,18.06-5.28,27.23-19.29,22.99-33.79-4.09-14-16.55-19.74-37.61-21.87-28.93-2.59-48.39-9.6-54.86-31.74-6.18-21.12,4.15-41.54,26.44-52.21l-7.52-25.7,15.78-4.61,7.22,24.68c15.42-3.96,27.04-2.94,35.68-.77l-1.45,18.65c-6.24-1.49-18.31-4.04-34.59.73-19.59,5.73-23.55,19.59-20.57,29.77,3.87,13.23,15.22,17.09,40.04,19.78,29.33,3.02,46.43,12.38,53.06,35.03,5.88,20.1-2.61,43.02-27.55,55.02l7.74,26.46-16.03,4.69Z" />
</svg>